<?xml version="1.0" encoding="UTF-8" standalone="no"?>
<svg
   version="1.1"
   width="1360.6299pt"
   height="935.43311pt"
   id="svg33993"
   viewBox="0 0 1360.6299 935.43311"
   sodipodi:docname="Memorial Descritivo_01.svg"
   inkscape:version="1.2.2 (732a01da63, 2022-12-09)"
   xmlns:inkscape="http://www.inkscape.org/namespaces/inkscape"
   xmlns:sodipodi="http://sodipodi.sourceforge.net/DTD/sodipodi-0.dtd"
   xmlns="http://www.w3.org/2000/svg"
   xmlns:svg="http://www.w3.org/2000/svg">
  <defs
     id="defs33997" />
  <sodipodi:namedview
     id="namedview33995"
     pagecolor="#ffffff"
     bordercolor="#000000"
     borderopacity="0.25"
     inkscape:showpageshadow="2"
     inkscape:pageopacity="0.0"
     inkscape:pagecheckerboard="0"
     inkscape:deskcolor="#d1d1d1"
     showgrid="false"
     inkscape:zoom="0.42894569"
     inkscape:cx="906.87471"
     inkscape:cy="624.78772"
     inkscape:window-width="1360"
     inkscape:window-height="715"
     inkscape:window-x="-8"
     inkscape:window-y="-8"
     inkscape:window-maximized="1"
     inkscape:current-layer="svg33993"
     inkscape:document-units="pt" />
  <path
     d="m 378.8049,548.8111 v 0 q 0,12.2539 12.2538,12.2539 h 85.7766 q 12.2538,0 12.2538,-12.2539 v 0 q 0,-12.2538 -12.2538,-12.2538 h -85.7766 q -12.2538,0 -12.2538,12.2538 z"
     style="fill:#2cd025;fill-rule:evenodd"
     id="path33525" />
  <g
     id="Layer1000">
    <path
       d="m 357.4064,235.462 v 35.8143 q 0,12.3073 12.3073,12.3073 h 57.4658 q 12.3073,0 12.3073,-12.3073 V 235.462 q 0,-12.3073 -12.3073,-12.3073 h -57.4658 q -12.3073,0 -12.3073,12.3073 z"
       style="fill:#2cd025;fill-rule:evenodd"
       id="path33527" />
    <g
       id="Layer1001">
      <text
         x="372.0217"
         y="250.9308"
         id="text33531"><tspan
           font-family="'Swis721 Blk BT'"
           font-size="10.5px"
           fill="#ffffff"
           id="tspan33529">Tabela de</tspan></text>
      <text
         x="375.81451"
         y="263.4639"
         id="text33535"><tspan
           font-family="'Swis721 Blk BT'"
           font-size="10.5px"
           fill="#ffffff"
           id="tspan33533">Cartelas</tspan></text>
    </g>
  </g>
  <path
     d="m 106.5745,84.4536 14.4957,5.8579 14.4957,5.8579 6.0043,14.1421 6.0043,14.1422 -6.0043,14.1422 -6.0043,14.1422 -14.4957,5.8578 -14.4957,5.8579 -14.4957,-5.8579 -14.4957,-5.8578 -6.0044,-14.1422 -6.0043,-14.1422 6.0043,-14.1422 6.0044,-14.1421 14.4957,-5.8579 z"
     style="fill:#b8e8ba;fill-rule:evenodd"
     id="path33539" />
  <text
     x="65.7509"
     y="135.64771"
     id="text33543"><tspan
       font-family="'Swis721 Blk BT'"
       font-size="10.5px"
       fill="#000200"
       id="tspan33541">MainActivity</tspan></text>
  <g
     id="Layer1002">
    <path
       d="m 179.2443,199.8308 14.4957,5.8578 14.4957,5.8579 6.0043,14.1422 6.0043,14.1422 -6.0043,14.1421 -6.0043,14.1422 -14.4957,5.8579 -14.4957,5.8579 -14.4957,-5.8579 -14.4957,-5.8579 -6.0043,-14.1422 -6.0043,-14.1421 6.0043,-14.1422 6.0043,-14.1422 14.4957,-5.8579 z"
       style="fill:#b8e8ba;fill-rule:evenodd"
       id="path33545" />
    <text
       x="126.8589"
       y="247.6868"
       id="text33549"><tspan
         font-family="'Swis721 Blk BT'"
         font-size="8px"
         fill="#000200"
         id="tspan33547">Gerenciador de Cartelas</tspan></text>
  </g>
  <path
     d="m 508.0944,160.0598 14.4957,5.8579 14.4957,5.8579 6.0043,14.1422 6.0043,14.1421 -6.0043,14.1422 -6.0043,14.1422 -14.4957,5.8579 -14.4957,5.8578 -14.4957,-5.8578 -14.4957,-5.8579 -6.0044,-14.1422 -6.0043,-14.1422 6.0043,-14.1421 6.0044,-14.1422 14.4957,-5.8579 z"
     style="fill:#b8e8ba;fill-rule:evenodd"
     id="path33552" />
  <text
     x="454.77539"
     y="207.91589"
     id="text33556"><tspan
       font-family="'Swis721 Blk BT'"
       font-size="8px"
       fill="#000200"
       id="tspan33554">Gerenciador de CardCOD</tspan></text>
  <g
     id="Layer1003">
    <path
       d="m 178.1218,614.138 14.4957,5.8579 14.4957,5.8579 6.0043,14.1422 6.0043,14.1421 -6.0043,14.1422 -6.0043,14.1422 -14.4957,5.8579 -14.4957,5.8579 -14.4957,-5.8579 -14.4957,-5.8579 -6.0044,-14.1422 -6.0043,-14.1422 6.0043,-14.1421 6.0044,-14.1422 14.4957,-5.8579 z"
       style="fill:#b8e8ba;fill-rule:evenodd"
       id="path33558" />
    <text
       x="142.974"
       y="659.1076"
       id="text33562"><tspan
         font-family="'Swis721 Blk BT'"
         font-size="10.5px"
         fill="#000200"
         id="tspan33560">Config</tspan></text>
  </g>
  <g
     id="Layer1004">
    <path
       d="m 178.1218,367.7265 14.4957,5.8579 14.4957,5.8579 6.0043,14.1422 6.0043,14.1421 -6.0043,14.1422 -6.0043,14.1422 -14.4957,5.8579 -14.4957,5.8579 -14.4957,-5.8579 -14.4957,-5.8579 -6.0044,-14.1422 -6.0043,-14.1422 6.0043,-14.1421 6.0044,-14.1422 14.4957,-5.8579 z"
       style="fill:#b8e8ba;fill-rule:evenodd"
       id="path33565" />
    <text
       x="133.1031"
       y="411.6535"
       id="text33569"><tspan
         font-family="'Swis721 Blk BT'"
         font-size="10.5px"
         fill="#000200"
         id="tspan33567">Sorteios</tspan></text>
  </g>
  <path
     d="m 106.5745,164.454 v 489.6842 h 30.5472"
     style="fill:none;stroke:#1b1918;stroke-width:0.5669;stroke-linecap:butt;stroke-linejoin:miter;stroke-dasharray:none"
     id="path33572" />
  <path
     d="M 137.1217,407.7266 H 106.5745"
     style="fill:none;stroke:#1b1918;stroke-width:0.5669;stroke-linecap:butt;stroke-linejoin:miter;stroke-dasharray:none"
     id="path33574" />
  <path
     d="M 138.2443,239.8309 H 106.5489"
     style="fill:none;stroke:#1b1918;stroke-width:0.5669;stroke-linecap:butt;stroke-linejoin:miter;stroke-dasharray:none"
     id="path33576" />
  <g
     id="Layer1005">
    <path
       d="m 265.4487,199.2153 v 0 q 0,10.9134 10.9134,10.9134 h 49.0393 q 10.9134,0 10.9134,-10.9134 v 0 q 0,-10.9133 -10.9134,-10.9133 h -49.0393 q -10.9134,0 -10.9134,10.9133 z"
       style="fill:#2cd025;fill-rule:evenodd"
       id="path33578" />
    <text
       x="288.42429"
       y="202.17909"
       id="text33582"><tspan
         font-family="Arial"
         font-size="8px"
         fill="#ffffff"
         id="tspan33580">CRIAR</tspan></text>
  </g>
  <g
     id="Layer1006">
    <path
       d="m 893.9889,136.6944 v 0 q 0,10.9134 10.9133,10.9134 h 49.0394 q 10.9134,0 10.9134,-10.9134 v 0 q 0,-10.9134 -10.9134,-10.9134 h -49.0394 q -10.9133,0 -10.9133,10.9134 z"
       style="fill:#2cd025;fill-rule:evenodd"
       id="path33585" />
    <text
       x="916.96448"
       y="139.6582"
       id="text33589"><tspan
         font-family="Arial"
         font-size="8px"
         fill="#ffffff"
         id="tspan33587">CRIAR</tspan></text>
  </g>
  <g
     id="Layer1007">
    <path
       d="m 265.4487,226.2922 v 0 q 0,10.9133 10.9134,10.9133 h 49.0393 q 10.9134,0 10.9134,-10.9133 v 0 q 0,-10.9134 -10.9134,-10.9134 h -49.0393 q -10.9134,0 -10.9134,10.9134 z"
       style="fill:#2cd025;fill-rule:evenodd"
       id="path33592" />
    <text
       x="288.23639"
       y="229.1559"
       id="text33596"><tspan
         font-family="Arial"
         font-size="8px"
         fill="#ffffff"
         id="tspan33594">ABRIR</tspan></text>
  </g>
  <g
     id="Layer1008">
    <path
       d="m 893.9889,163.7712 v 0 q 0,10.9134 10.9133,10.9134 h 49.0394 q 10.9134,0 10.9134,-10.9134 v 0 q 0,-10.9134 -10.9134,-10.9134 h -49.0394 q -10.9133,0 -10.9133,10.9134 z"
       style="fill:#2cd025;fill-rule:evenodd"
       id="path33599" />
    <text
       x="916.77661"
       y="166.6349"
       id="text33603"><tspan
         font-family="Arial"
         font-size="8px"
         fill="#ffffff"
         id="tspan33601">ABRIR</tspan></text>
  </g>
  <g
     id="Layer1009">
    <path
       d="m 265.4487,253.369 v 0 q 0,10.9134 10.9134,10.9134 h 49.0393 q 10.9134,0 10.9134,-10.9134 v 0 q 0,-10.9134 -10.9134,-10.9134 h -49.0393 q -10.9134,0 -10.9134,10.9134 z"
       style="fill:#2cd025;fill-rule:evenodd"
       id="path33606" />
    <text
       x="282.6026"
       y="256.2327"
       id="text33610"><tspan
         font-family="Arial"
         font-size="8px"
         fill="#ffffff"
         id="tspan33608">DELETAR</tspan></text>
  </g>
  <g
     id="Layer1010">
    <path
       d="m 893.9889,190.848 v 0 q 0,10.9134 10.9133,10.9134 h 49.0394 q 10.9134,0 10.9134,-10.9134 v 0 q 0,-10.9133 -10.9134,-10.9133 h -49.0394 q -10.9133,0 -10.9133,10.9133 z"
       style="fill:#2cd025;fill-rule:evenodd"
       id="path33613" />
    <text
       x="911.1427"
       y="193.7117"
       id="text33617"><tspan
         font-family="Arial"
         font-size="8px"
         fill="#ffffff"
         id="tspan33615">DELETAR</tspan></text>
  </g>
  <g
     id="Layer1011">
    <path
       d="m 265.4487,280.4458 v 0 q 0,10.9134 10.9134,10.9134 h 49.0393 q 10.9134,0 10.9134,-10.9134 v 0 q 0,-10.9134 -10.9134,-10.9134 h -49.0393 q -10.9134,0 -10.9134,10.9134 z"
       style="fill:#2cd025;fill-rule:evenodd"
       id="path33620" />
    <text
       x="286.60251"
       y="283.30951"
       id="text33624"><tspan
         font-family="Arial"
         font-size="8px"
         fill="#ffffff"
         id="tspan33622">EDITAR</tspan></text>
  </g>
  <g
     id="Layer1012">
    <path
       d="m 893.9889,217.9249 v 0 q 0,10.9133 10.9133,10.9133 h 49.0394 q 10.9134,0 10.9134,-10.9133 v 0 q 0,-10.9134 -10.9134,-10.9134 h -49.0394 q -10.9133,0 -10.9133,10.9134 z"
       style="fill:#2cd025;fill-rule:evenodd"
       id="path33627" />
    <text
       x="915.1427"
       y="220.7886"
       id="text33631"><tspan
         font-family="Arial"
         font-size="8px"
         fill="#ffffff"
         id="tspan33629">EDITAR</tspan></text>
  </g>
  <g
     id="Layer1013">
    <path
       d="m 467.0542,296.2142 v 35.8142 q 0,12.3074 12.3073,12.3074 h 57.4658 q 12.3073,0 12.3073,-12.3074 v -35.8142 q 0,-12.3073 -12.3073,-12.3073 h -57.4658 q -12.3073,0 -12.3073,12.3073 z"
       style="fill:#2cd025;fill-rule:evenodd"
       id="path33634" />
    <g
       id="Layer1014">
      <text
         x="481.6709"
         y="311.68259"
         id="text33638"><tspan
           font-family="'Swis721 Blk BT'"
           font-size="10.5px"
           fill="#ffffff"
           id="tspan33636">Tabela de</tspan></text>
      <text
         x="484.2887"
         y="324.2157"
         id="text33642"><tspan
           font-family="'Swis721 Blk BT'"
           font-size="10.5px"
           fill="#ffffff"
           id="tspan33640">CardCod</tspan></text>
    </g>
  </g>
  <path
     d="m 508.0944,240.0602 v 43.8466"
     style="fill:none;stroke:#1b1918;stroke-width:0.5669;stroke-linecap:butt;stroke-linejoin:miter;stroke-dasharray:none"
     id="path33646" />
  <path
     d="m 467.0541,314.1213 -11.6016,-0.042 -0.1441,-61.105 -15.8215,0.3948"
     style="fill:none;stroke:#1b1918;stroke-width:0.5669;stroke-linecap:butt;stroke-linejoin:miter;stroke-dasharray:none"
     id="path33648" />
  <path
     d="m 220.2443,239.8309 h 23.264"
     style="fill:none;stroke:#1b1918;stroke-width:0.5669;stroke-linecap:butt;stroke-linejoin:miter;stroke-dasharray:none"
     id="path33650" />
  <path
     d="m 702.3468,178.1269 h 41.0043"
     style="fill:none;stroke:#1b1918;stroke-width:0.5669;stroke-linecap:butt;stroke-linejoin:miter;stroke-dasharray:none"
     id="path33652" />
  <path
     d="m 243.5083,281.2629 v -81.2305 h 21.9404"
     style="fill:none;stroke:#1b1918;stroke-width:0.5669;stroke-linecap:butt;stroke-linejoin:miter;stroke-dasharray:none"
     id="path33654" />
  <path
     d="m 872.0484,218.742 v -81.2305 h 21.9405"
     style="fill:none;stroke:#1b1918;stroke-width:0.5669;stroke-linecap:butt;stroke-linejoin:miter;stroke-dasharray:none"
     id="path33656" />
  <path
     d="m 243.5083,226.2923 h 21.9404"
     style="fill:none;stroke:#1b1918;stroke-width:0.5669;stroke-linecap:butt;stroke-linejoin:miter;stroke-dasharray:none"
     id="path33658" />
  <path
     d="m 872.0484,163.7714 h 21.9405"
     style="fill:none;stroke:#1b1918;stroke-width:0.5669;stroke-linecap:butt;stroke-linejoin:miter;stroke-dasharray:none"
     id="path33660" />
  <path
     d="m 243.5083,253.3691 21.9404,-2e-4"
     style="fill:none;stroke:#1b1918;stroke-width:0.5669;stroke-linecap:butt;stroke-linejoin:miter;stroke-dasharray:none"
     id="path33662" />
  <path
     d="m 872.0484,190.8482 21.9405,-3e-4"
     style="fill:none;stroke:#1b1918;stroke-width:0.5669;stroke-linecap:butt;stroke-linejoin:miter;stroke-dasharray:none"
     id="path33664" />
  <path
     d="m 243.5083,280.446 h 21.9404"
     style="fill:none;stroke:#1b1918;stroke-width:0.5669;stroke-linecap:butt;stroke-linejoin:miter;stroke-dasharray:none"
     id="path33666" />
  <path
     d="m 872.0484,217.925 h 21.9405"
     style="fill:none;stroke:#1b1918;stroke-width:0.5669;stroke-linecap:butt;stroke-linejoin:miter;stroke-dasharray:none"
     id="path33668" />
  <path
     d="m 1079.1181,135.5869 14.4957,5.8579 14.4957,5.8579 6.0044,14.1421 6.0043,14.1422 -6.0043,14.1422 -6.0044,14.1422 -14.4957,5.8579 -14.4957,5.8578 -14.4957,-5.8578 -14.4957,-5.8579 -6.0043,-14.1422 -6.0043,-14.1422 6.0043,-14.1422 6.0043,-14.1421 14.4957,-5.8579 z"
     style="fill:#b8e8ba;fill-rule:evenodd"
     id="path33670" />
  <g
     id="Layer1015">
    <text
       x="777.78308"
       y="522.80621"
       id="text33674"><tspan
         font-family="'Swis721 Blk BT'"
         font-size="10.5px"
         fill="#1b1918"
         id="tspan33672">Usuário 2</tspan></text>
    <path
       d="m 748.657,518.6822 v 0 q 0,12.2538 12.2538,12.2538 h 85.7766 q 12.2538,0 12.2538,-12.2538 v 0 q 0,-12.2538 -12.2538,-12.2538 h -85.7766 q -12.2538,0 -12.2538,12.2538 z"
       style="fill:none;stroke:#1b1918;stroke-width:0.5669;stroke-linecap:butt;stroke-linejoin:miter;stroke-dasharray:none"
       id="path33676" />
  </g>
  <g
     id="Layer1016">
    <text
       x="776.8653"
       y="570.4325"
       id="text33681"><tspan
         font-family="'Swis721 Blk BT'"
         font-size="10.5px"
         fill="#1b1918"
         id="tspan33679">Usuário N</tspan></text>
    <path
       d="m 748.657,566.3085 v 0 q 0,12.2538 12.2538,12.2538 h 85.7766 q 12.2538,0 12.2538,-12.2538 v 0 q 0,-12.2538 -12.2538,-12.2538 h -85.7766 q -12.2538,0 -12.2538,12.2538 z"
       style="fill:none;stroke:#1b1918;stroke-width:0.5669;stroke-linecap:butt;stroke-linejoin:miter;stroke-dasharray:none"
       id="path33683" />
  </g>
  <g
     id="Layer1017">
    <text
       x="778.23468"
       y="475.1799"
       id="text33688"><tspan
         font-family="'Swis721 Blk BT'"
         font-size="10.5px"
         fill="#1b1918"
         id="tspan33686">Usuário 1</tspan></text>
    <path
       d="m 748.657,471.0558 v 0 q 0,12.2538 12.2538,12.2538 h 85.7766 q 12.2538,0 12.2538,-12.2538 v 0 q 0,-12.2538 -12.2538,-12.2538 h -85.7766 q -12.2538,0 -12.2538,12.2538 z"
       style="fill:none;stroke:#1b1918;stroke-width:0.5669;stroke-linecap:butt;stroke-linejoin:miter;stroke-dasharray:none"
       id="path33690" />
  </g>
  <text
     x="408.80811"
     y="552.7536"
     id="text33695"><tspan
       font-family="'Swis721 Blk BT'"
       font-size="10.5px"
       fill="#ffffff"
       id="tspan33693">OPLOGIC</tspan></text>
  <g
     id="Layer1018">
    <text
       x="744.33832"
       y="411.06271"
       id="text33699"><tspan
         font-family="'Swis721 Blk BT'"
         font-size="10.5px"
         fill="#1b1918"
         id="tspan33697">ADM</tspan></text>
    <path
       d="m 702.0135,407.333 v 0 q 0,12.2538 12.2538,12.2538 h 85.7766 q 12.2538,0 12.2538,-12.2538 v 0 q 0,-12.2538 -12.2538,-12.2538 h -85.7766 q -12.2538,0 -12.2538,12.2538 z"
       style="fill:none;stroke:#1b1918;stroke-width:0.5669;stroke-linecap:butt;stroke-linejoin:miter;stroke-dasharray:none"
       id="path33701" />
  </g>
  <g
     id="Layer1019">
    <text
       x="639.51453"
       y="484.1076"
       id="text33706"><tspan
         font-family="'Swis721 Blk BT'"
         font-size="10.5px"
         fill="#1b1918"
         id="tspan33704">Cartela 1</tspan></text>
    <path
       d="m 608.5883,467.9111 v 24.5076 h 110.2843 v -24.5076 z"
       style="fill:none;stroke:#1b1918;stroke-width:0.5669;stroke-linecap:butt;stroke-linejoin:miter;stroke-dasharray:none"
       id="path33708" />
  </g>
  <text
     x="1130.2743"
     y="176.51401"
     id="text33713"><tspan
       font-family="'Swis721 Blk BT'"
       font-size="10.5px"
       fill="#000200"
       id="tspan33711">Sorteio</tspan></text>
  <g
     id="Layer1020">
    <text
       x="639.06317"
       y="518.23022"
       id="text33717"><tspan
         font-family="'Swis721 Blk BT'"
         font-size="10.5px"
         fill="#1b1918"
         id="tspan33715">Cartela 2</tspan></text>
    <path
       d="m 608.5883,502.0337 v 24.5077 h 110.2843 v -24.5077 z"
       style="fill:none;stroke:#1b1918;stroke-width:0.5669;stroke-linecap:butt;stroke-linejoin:miter;stroke-dasharray:none"
       id="path33719" />
  </g>
  <g
     id="Layer1021">
    <text
       x="638.99573"
       y="552.35309"
       id="text33724"><tspan
         font-family="'Swis721 Blk BT'"
         font-size="10.5px"
         fill="#1b1918"
         id="tspan33722">Cartela 3</tspan></text>
    <path
       d="M 608.5883,536.1564 V 560.664 H 718.8726 V 536.1564 Z"
       style="fill:none;stroke:#1b1918;stroke-width:0.5669;stroke-linecap:butt;stroke-linejoin:miter;stroke-dasharray:none"
       id="path33726" />
  </g>
  <g
     id="Layer1022">
    <text
       x="639.02179"
       y="586.47571"
       id="text33731"><tspan
         font-family="'Swis721 Blk BT'"
         font-size="10.5px"
         fill="#1b1918"
         id="tspan33729">Cartela 4</tspan></text>
    <path
       d="m 608.5883,570.2791 v 24.5076 h 110.2843 v -24.5076 z"
       style="fill:none;stroke:#1b1918;stroke-width:0.5669;stroke-linecap:butt;stroke-linejoin:miter;stroke-dasharray:none"
       id="path33733" />
  </g>
  <g
     id="Layer1023">
    <text
       x="638.14508"
       y="620.5932"
       id="text33738"><tspan
         font-family="'Swis721 Blk BT'"
         font-size="10.5px"
         fill="#1b1918"
         id="tspan33736">Cartela N</tspan></text>
    <path
       d="m 608.5883,604.4018 v 24.5076 h 110.2843 v -24.5076 z"
       style="fill:none;stroke:#1b1918;stroke-width:0.5669;stroke-linecap:butt;stroke-linejoin:miter;stroke-dasharray:none"
       id="path33740" />
  </g>
  <g
     id="Layer1024">
    <text
       x="627.58179"
       y="654.72089"
       id="text33745"><tspan
         font-family="'Swis721 Blk BT'"
         font-size="10.5px"
         fill="#1b1918"
         id="tspan33743">Cartela N + 1</tspan></text>
    <path
       d="m 608.5883,638.5245 v 24.5076 h 110.2843 v -24.5076 z"
       style="fill:none;stroke:#1b1918;stroke-width:0.5669;stroke-linecap:butt;stroke-linejoin:miter;stroke-dasharray:none"
       id="path33747" />
  </g>
  <g
     id="Layer1025">
    <path
       d="m 743.3513,160.2198 v 35.8142 q 0,12.3074 12.3073,12.3074 h 57.4659 q 12.3073,0 12.3073,-12.3074 v -35.8142 q 0,-12.3073 -12.3073,-12.3073 h -57.4659 q -12.3073,0 -12.3073,12.3073 z"
       style="fill:#2cd025;fill-rule:evenodd"
       id="path33750" />
    <g
       id="Layer1026">
      <text
         x="757.96667"
         y="175.6936"
         id="text33754"><tspan
           font-family="'Swis721 Blk BT'"
           font-size="10.5px"
           fill="#ffffff"
           id="tspan33752">Tabela de</tspan></text>
      <text
         x="760.41071"
         y="188.2162"
         id="text33758"><tspan
           font-family="'Swis721 Blk BT'"
           font-size="10.5px"
           fill="#ffffff"
           id="tspan33756">Usuários</tspan></text>
    </g>
  </g>
  <g
     id="Layer1027">
    <path
       d="m 734.8567,51.5178 v 56.7779 h 98.0304 V 51.5178 Z"
       style="fill:#2cd025;fill-rule:evenodd"
       id="path33762" />
    <g
       id="Layer1028">
      <text
         x="761.9281"
         y="77.598396"
         id="text33766"><tspan
           font-family="'Swis721 Blk BT'"
           font-size="10.5px"
           fill="#ffffff"
           id="tspan33764">Consola</tspan></text>
      <text
         x="762.97888"
         y="90.0998"
         id="text33770"><tspan
           font-family="'Swis721 Blk BT'"
           font-size="10.5px"
           fill="#ffffff"
           id="tspan33768">Usuário</tspan></text>
    </g>
  </g>
  <text
     x="1143.4637"
     y="273.7738"
     id="text33776"><tspan
       font-family="'Swis721 Blk BT'"
       font-size="10.5px"
       fill="#1b1918"
       id="tspan33774">Editor de</tspan></text>
  <text
     x="1145.3136"
     y="286.30661"
     id="text33780"><tspan
       font-family="'Swis721 Blk BT'"
       font-size="10.5px"
       fill="#1b1918"
       id="tspan33778">Cartelas</tspan></text>
  <g
     id="Layer1029">
    <text
       x="736.4115"
       y="330.0058"
       id="text33784"><tspan
         font-family="'Swis721 Blk BT'"
         font-size="10.5px"
         fill="#1b1918"
         id="tspan33782">Consola</tspan></text>
    <text
       x="719.3327"
       y="344.05429"
       id="text33788"><tspan
         font-family="'Swis721 Blk BT'"
         font-size="10.5px"
         fill="#1b1918"
         id="tspan33786">Administrador</tspan></text>
    <path
       d="m 709.3403,306.0746 v 56.7779 h 98.0304 v -56.7779 z"
       style="fill:none;stroke:#1b1918;stroke-width:0.5669;stroke-linecap:butt;stroke-linejoin:miter;stroke-dasharray:none"
       id="path33790" />
  </g>
  <g
     id="Layer1030">
    <path
       d="m 384.9318,413.2194 v 56.7779 h 98.0305 v -56.7779 z"
       style="fill:#2cd025;fill-rule:evenodd"
       id="path33793" />
    <text
       x="408.75339"
       y="445.52979"
       id="text33797"><tspan
         font-family="'Swis721 Blk BT'"
         font-size="10.5px"
         fill="#ffffff"
         id="tspan33795">Tabuleiro</tspan></text>
  </g>
  <g
     id="Layer1031">
    <path
       d="m 233.1672,521.5077 v 56.7779 h 98.0304 v -56.7779 z"
       style="fill:#2cd025;fill-rule:evenodd"
       id="path33800" />
    <g
       id="Layer1032">
      <text
         x="250.24879"
         y="546.21332"
         id="text33804"><tspan
           font-family="'Swis721 Blk BT'"
           font-size="10.5px"
           fill="#ffffff"
           id="tspan33802">Terminal de</tspan></text>
      <text
         x="251.71429"
         y="561.42279"
         id="text33808"><tspan
           font-family="'Swis721 Blk BT'"
           font-size="10.5px"
           fill="#ffffff"
           id="tspan33806">Resultados</tspan></text>
    </g>
  </g>
  <g
     id="Layer1033">
    <path
       d="m 233.1672,392.593 v 18.6376 h 98.0302 V 392.593 Z"
       style="fill:#2cd025;fill-rule:evenodd"
       id="path33812" />
    <path
       d="m 233.1671,392.593 v 98.0305 h 98.0304 V 392.593 Z"
       style="fill:#2cd025;fill-rule:evenodd"
       id="path33814" />
    <path
       d="m 233.1672,411.2306 v 18.1559 h 49.0153 v -18.1559 z"
       style="fill:#2d3471;fill-rule:evenodd;stroke:#ffffff;stroke-width:0.5669;stroke-linecap:butt;stroke-linejoin:miter;stroke-dasharray:none"
       id="path33816" />
    <path
       d="m 282.1825,411.2306 v 18.1559 h 49.015 v -18.1559 z"
       style="fill:#2d3471;fill-rule:evenodd;stroke:#ffffff;stroke-width:0.5669;stroke-linecap:butt;stroke-linejoin:miter;stroke-dasharray:none"
       id="path33818" />
    <text
       x="263.38651"
       y="407.21469"
       id="text33822"><tspan
         font-family="'Swis721 Blk BT'"
         font-size="10.5px"
         fill="#ffffff"
         id="tspan33820">Display</tspan></text>
    <text
       x="243.97031"
       y="424.13669"
       id="text33826"><tspan
         font-family="'Swis721 Blk BT'"
         font-size="10.5px"
         fill="#ffffff"
         id="tspan33824">Letra</tspan></text>
    <text
       x="294.79379"
       y="424.13669"
       id="text33830"><tspan
         font-family="'Swis721 Blk BT'"
         font-size="10.5px"
         fill="#ffffff"
         id="tspan33828">Bola</tspan></text>
    <path
       d="m 233.1671,429.3866 h 98.0304"
       style="fill:none;stroke:#ffffff;stroke-width:0.5669;stroke-linecap:butt;stroke-linejoin:miter;stroke-dasharray:none"
       id="path33832" />
    <path
       d="M 282.1825,490.6235 V 411.2306"
       style="fill:none;stroke:#ffffff;stroke-width:0.5669;stroke-linecap:butt;stroke-linejoin:miter;stroke-dasharray:none"
       id="path33834" />
    <text
       x="248.9933"
       y="470.83578"
       id="text33838"><tspan
         font-family="Arial"
         font-size="35px"
         fill="#ffffff"
         id="tspan33836">#</tspan></text>
    <path
       d="m 306.4974,440.3309 a 18.9327,18.9327 0 0 1 18.9327,18.9328 18.9327,18.9327 0 1 1 -18.9327,-18.9328 z"
       style="fill:#ffffff;fill-rule:evenodd"
       id="path33840" />
    <text
       x="295.88"
       y="468.3934"
       id="text33844"><tspan
         font-family="Arial"
         font-size="20.5px"
         fill="#000200"
         id="tspan33842">$$</tspan></text>
  </g>
  <path
     d="m 178.1218,367.7264 v -21.2581 h 104.0607 v 0 46.1247"
     style="fill:none;stroke:#1b1918;stroke-width:0.5669;stroke-linecap:butt;stroke-linejoin:miter;stroke-dasharray:none"
     id="path33847" />
  <path
     d="M 384.9321,441.6083 H 331.1977"
     style="fill:none;stroke:#1b1918;stroke-width:0.5669;stroke-linecap:butt;stroke-linejoin:miter;stroke-dasharray:none"
     id="path33849" />
  <g
     id="Layer1034">
    <path
       d="m 661.3067,35.7223 14.4957,5.8579 14.4957,5.8579 6.0043,14.1422 6.0043,14.1422 -6.0043,14.1421 -6.0043,14.1422 -14.4957,5.8579 -14.4957,5.8579 -14.4957,-5.8579 -14.4957,-5.8579 -6.0043,-14.1422 -6.0044,-14.1421 6.0044,-14.1422 6.0043,-14.1422 14.4957,-5.8579 z"
       style="fill:#b8e8ba;fill-rule:evenodd"
       id="path33851" />
    <text
       x="619.52002"
       y="85.811798"
       id="text33855"><tspan
         font-family="'Swis721 Blk BT'"
         font-size="10.5px"
         fill="#000200"
         id="tspan33853">FormUsuário</tspan></text>
  </g>
  <path
     d="M 661.3067,147.9124 V 115.7227"
     style="fill:none;stroke:#1b1918;stroke-width:0.5669;stroke-linecap:butt;stroke-linejoin:miter;stroke-dasharray:none"
     id="path33858" />
  <path
     d="M 872.0484,178.1269 H 825.4318"
     style="fill:none;stroke:#1b1918;stroke-width:0.5669;stroke-linecap:butt;stroke-linejoin:miter;stroke-dasharray:none"
     id="path33860" />
  <g
     id="Layer1035">
    <text
       x="1079.4895"
       y="694.93488"
       id="text33864"><tspan
         font-family="'Swis721 Blk BT'"
         font-size="10.5px"
         fill="#1b1918"
         id="tspan33862">Vendedor</tspan></text>
    <path
       d="m 1050.5374,691.1069 v 0 q 0,12.2538 12.2539,12.2538 h 85.7766 q 12.2538,0 12.2538,-12.2538 v 0 q 0,-12.2538 -12.2538,-12.2538 h -85.7766 q -12.2539,0 -12.2539,12.2538 z"
       style="fill:none;stroke:#1b1918;stroke-width:0.5669;stroke-linecap:butt;stroke-linejoin:miter;stroke-dasharray:none"
       id="path33866" />
  </g>
  <g
     id="Layer1036">
    <text
       x="1078.5631"
       y="551.32581"
       id="text33871"><tspan
         font-family="'Swis721 Blk BT'"
         font-size="10.5px"
         fill="#1b1918"
         id="tspan33869">Sorteador</tspan></text>
    <path
       d="m 1050.5374,547.3988 v 0 q 0,12.2538 12.2539,12.2538 h 85.7766 q 12.2538,0 12.2538,-12.2538 v 0 q 0,-12.2538 -12.2538,-12.2538 h -85.7766 q -12.2539,0 -12.2539,12.2538 z"
       style="fill:none;stroke:#1b1918;stroke-width:0.5669;stroke-linecap:butt;stroke-linejoin:miter;stroke-dasharray:none"
       id="path33873" />
  </g>
  <g
     id="Layer1037">
    <g
       id="Layer1038">
      <text
         x="1084.0669"
         y="618.66229"
         id="text33878"><tspan
           font-family="'Swis721 Blk BT'"
           font-size="10.5px"
           fill="#1b1918"
           id="tspan33876">Consola</tspan></text>
      <text
         x="1079.821"
         y="632.71082"
         id="text33882"><tspan
           font-family="'Swis721 Blk BT'"
           font-size="10.5px"
           fill="#1b1918"
           id="tspan33880">Vendedor</tspan></text>
    </g>
    <path
       d="m 1056.9954,594.7311 v 56.7779 h 98.0305 v -56.7779 z"
       style="fill:none;stroke:#1b1918;stroke-width:0.5669;stroke-linecap:butt;stroke-linejoin:miter;stroke-dasharray:none"
       id="path33885" />
  </g>
  <path
     d="m 1334.4143,886.5502 v -84.4849 h -329.2489 v 84.4849 z"
     style="fill:none;stroke:#1b1918;stroke-width:0.5669;stroke-linecap:butt;stroke-linejoin:miter;stroke-dasharray:none"
     id="path33888" />
  <path
     d="m 1005.1654,802.0653 v 32.2849 h 329.2489 v -32.2849 z"
     style="fill:#2cd025;fill-rule:evenodd"
     id="path33890" />
  <text
     x="1011.6017"
     y="828.11963"
     id="text33894"><tspan
       font-family="Arial"
       font-size="16px"
       fill="#ffffff"
       id="tspan33892">Bingo Express - Organigrama</tspan></text>
  <text
     x="1008.3458"
     y="845.55438"
     id="text33898"><tspan
       font-family="Arial"
       font-size="8px"
       fill="#000200"
       id="tspan33896">Programador</tspan></text>
  <text
     x="1245.0555"
     y="843.8006"
     id="text33902"><tspan
       font-family="Arial"
       font-size="8px"
       fill="#000200"
       id="tspan33900">DATA</tspan></text>
  <text
     x="1008.3458"
     y="868.67041"
     id="text33906"><tspan
       font-family="Arial"
       font-size="8px"
       fill="#000200"
       id="tspan33904">Versão</tspan></text>
  <text
     x="1245.0555"
     y="869.12817"
     id="text33910"><tspan
       font-family="Arial"
       font-size="8px"
       fill="#000200"
       id="tspan33908">Folha</tspan></text>
  <path
     d="m 1005.1654,834.3502 v 26.1 h 329.2489 v -26.1 z"
     style="fill:none;stroke:#1b1918;stroke-width:0.5669;stroke-linecap:butt;stroke-linejoin:miter;stroke-dasharray:none"
     id="path33912" />
  <path
     d="m 1005.1654,860.4502 v 26.1 h 329.2489 v -26.1 z"
     style="fill:none;stroke:#1b1918;stroke-width:0.5669;stroke-linecap:butt;stroke-linejoin:miter;stroke-dasharray:none"
     id="path33914" />
  <text
     x="1017.7963"
     y="855.80048"
     id="text33918"><tspan
       font-family="'BankGothic Lt BT'"
       font-size="12px"
       fill="#1b1918"
       id="tspan33916">Clóvis Peres Falcão</tspan></text>
  <text
     x="1250.6539"
     y="855.80048"
     id="text33922"><tspan
       font-family="'BankGothic Lt BT'"
       font-size="12px"
       fill="#1b1918"
       id="tspan33920">07/03/2020</tspan></text>
  <text
     x="1017.7963"
     y="881.60089"
     id="text33926"><tspan
       font-family="'BankGothic Lt BT'"
       font-size="12px"
       fill="#1b1918"
       id="tspan33924">0.0.1</tspan></text>
  <text
     x="1282.6494"
     y="882.27332"
     id="text33930"><tspan
       font-family="'BankGothic Lt BT'"
       font-size="28px"
       fill="#1b1918"
       id="tspan33928">1/5</tspan></text>
  <path
     d="m 1240.4999,834.3502 v 52.2"
     style="fill:none;stroke:#1b1918;stroke-width:0.5669;stroke-linecap:butt;stroke-linejoin:miter;stroke-dasharray:none"
     id="path33932" />
  <path
     d="m 1077.5741,860.4502 v 26.1"
     style="fill:none;stroke:#1b1918;stroke-width:0.5669;stroke-linecap:butt;stroke-linejoin:miter;stroke-dasharray:none"
     id="path33934" />
  <g
     id="Layer1039">
    <text
       x="1217.6637"
       y="690.37738"
       id="text33938"><tspan
         font-family="'Swis721 Blk BT'"
         font-size="10.5px"
         fill="#1b1918"
         id="tspan33936">Usuário 2</tspan></text>
    <path
       d="m 1188.5376,686.2534 v 0 q 0,12.2538 12.2538,12.2538 h 85.7766 q 12.2538,0 12.2538,-12.2538 v 0 q 0,-12.2538 -12.2538,-12.2538 h -85.7766 q -12.2538,0 -12.2538,12.2538 z"
       style="fill:none;stroke:#1b1918;stroke-width:0.5669;stroke-linecap:butt;stroke-linejoin:miter;stroke-dasharray:none"
       id="path33940" />
  </g>
  <g
     id="Layer1040">
    <text
       x="1216.7458"
       y="734.97601"
       id="text33945"><tspan
         font-family="'Swis721 Blk BT'"
         font-size="10.5px"
         fill="#1b1918"
         id="tspan33943">Usuário N</tspan></text>
    <path
       d="m 1188.5376,730.8521 v 0 q 0,12.2538 12.2538,12.2538 h 85.7766 q 12.2538,0 12.2538,-12.2538 v 0 q 0,-12.2538 -12.2538,-12.2538 h -85.7766 q -12.2538,0 -12.2538,12.2538 z"
       style="fill:none;stroke:#1b1918;stroke-width:0.5669;stroke-linecap:butt;stroke-linejoin:miter;stroke-dasharray:none"
       id="path33947" />
  </g>
  <g
     id="Layer1041">
    <text
       x="1218.1154"
       y="645.77881"
       id="text33952"><tspan
         font-family="'Swis721 Blk BT'"
         font-size="10.5px"
         fill="#1b1918"
         id="tspan33950">Usuário 1</tspan></text>
    <path
       d="m 1188.5376,641.6547 v 0 q 0,12.2538 12.2538,12.2538 h 85.7766 q 12.2538,0 12.2538,-12.2538 v 0 q 0,-12.2538 -12.2538,-12.2538 h -85.7766 q -12.2538,0 -12.2538,12.2538 z"
       style="fill:none;stroke:#1b1918;stroke-width:0.5669;stroke-linecap:butt;stroke-linejoin:miter;stroke-dasharray:none"
       id="path33954" />
  </g>
  <g
     id="Layer1042">
    <text
       x="1218.5408"
       y="511.80121"
       id="text33959"><tspan
         font-family="'Swis721 Blk BT'"
         font-size="10.5px"
         fill="#1b1918"
         id="tspan33957">OPLOGIC</tspan></text>
    <path
       d="m 1188.5376,507.8587 v 0 q 0,12.2538 12.2538,12.2538 h 85.7766 q 12.2538,0 12.2538,-12.2538 v 0 q 0,-12.2538 -12.2538,-12.2538 h -85.7766 q -12.2538,0 -12.2538,12.2538 z"
       style="fill:none;stroke:#1b1918;stroke-width:0.5669;stroke-linecap:butt;stroke-linejoin:miter;stroke-dasharray:none"
       id="path33961" />
  </g>
  <g
     id="Layer1043">
    <text
       x="1230.8621"
       y="556.18701"
       id="text33966"><tspan
         font-family="'Swis721 Blk BT'"
         font-size="10.5px"
         fill="#1b1918"
         id="tspan33964">ADM</tspan></text>
    <path
       d="m 1188.5374,552.4573 v 0 q 0,12.2538 12.2538,12.2538 h 85.7766 q 12.2538,0 12.2538,-12.2538 v 0 q 0,-12.2539 -12.2538,-12.2539 h -85.7766 q -12.2538,0 -12.2538,12.2539 z"
       style="fill:none;stroke:#1b1918;stroke-width:0.5669;stroke-linecap:butt;stroke-linejoin:miter;stroke-dasharray:none"
       id="path33968" />
  </g>
  <g
     id="Layer1044">
    <text
       x="1217.4894"
       y="600.88391"
       id="text33973"><tspan
         font-family="'Swis721 Blk BT'"
         font-size="10.5px"
         fill="#1b1918"
         id="tspan33971">Vendedor</tspan></text>
    <path
       d="m 1188.5374,597.0559 v 0 q 0,12.2538 12.2538,12.2538 h 85.7766 q 12.2538,0 12.2538,-12.2538 v 0 q 0,-12.2538 -12.2538,-12.2538 h -85.7766 q -12.2538,0 -12.2538,12.2538 z"
       style="fill:none;stroke:#1b1918;stroke-width:0.5669;stroke-linecap:butt;stroke-linejoin:miter;stroke-dasharray:none"
       id="path33975" />
  </g>
  <g
     id="Layer1045">
    <text
       x="1216.563"
       y="467.18561"
       id="text33980"><tspan
         font-family="'Swis721 Blk BT'"
         font-size="10.5px"
         fill="#1b1918"
         id="tspan33978">Sorteador</tspan></text>
    <path
       d="m 1188.5374,463.2586 v 0 q 0,12.2538 12.2538,12.2538 h 85.7766 q 12.2538,0 12.2538,-12.2538 v 0 q 0,-12.2538 -12.2538,-12.2538 h -85.7766 q -12.2538,0 -12.2538,12.2538 z"
       style="fill:none;stroke:#1b1918;stroke-width:0.5669;stroke-linecap:butt;stroke-linejoin:miter;stroke-dasharray:none"
       id="path33982" />
  </g>
  <path
     d="m 336.3148,253.3689 21.0915,2e-4"
     style="fill:none;stroke:#1b1918;stroke-width:0.5669;stroke-linecap:butt;stroke-linejoin:miter;stroke-dasharray:none"
     id="path33985" />
  <path
     d="m 336.3148,226.2923 h 10.624 v -15.7578 h 51.5078 v 12.6201"
     style="fill:none;stroke:#1b1918;stroke-width:0.5669;stroke-linecap:butt;stroke-linejoin:miter;stroke-dasharray:none"
     id="path33987" />
  <path
     d="m 336.3148,280.446 h 10.624 v 15.7577 h 51.5078 v -12.6201"
     style="fill:none;stroke:#1b1918;stroke-width:0.5669;stroke-linecap:butt;stroke-linejoin:miter;stroke-dasharray:none"
     id="path33989" />
  <path
     d="m 336.3148,199.2152 h 84.9529 v 23.9394"
     style="fill:none;stroke:#1b1918;stroke-width:0.5669;stroke-linecap:butt;stroke-linejoin:miter;stroke-dasharray:none"
     id="path33991" />
</svg>
